<?xml version="1.0" standalone="yes"?>
<svg xmlns="http://www.w3.org/2000/svg" width="348" height="322">
<path style="fill:#030303; stroke:none;" d="M0 0L0 322L348 322L348 0L0 0z"/>
<path style="fill:#c10101; stroke:none;" d="M235 22L234 22C232.969 17.2773 228.9 15.5258 226 20C214.722 17.6726 218.463 32.5438 224 37L224 38C203.965 59.602 243.057 98.3377 264.786 81.2971C274.76 73.4753 271.368 52.8823 267.127 43C264.698 37.3388 261.938 31.2695 255 32C257.825 29.4636 263.018 27.1754 264.777 23.7878C269.885 13.9521 254.129 19.4011 251 21C257.709 10.9804 246.616 1.25598 237.782 9.97375C235.615 12.1123 235.801 18.939 235 22z"/>
<path style="fill:#4471c6; stroke:none;" d="M93 56C83.2901 52.9285 73.1773 58.2251 77.7276 69.9066C79.1694 73.608 82.8161 74.6577 85.1759 77.4954C88.933 82.0132 90.6679 87.5765 97.9846 85.5656C108.119 82.7803 102.013 71.1507 107.059 65C112.555 58.3024 120.024 47.033 127.715 42.9283C132.014 40.6336 136.533 44.1224 140.566 39.7215C146.584 33.1557 141.706 23.5592 134 22C133.178 14.6243 125.008 7.96011 118.279 14.3179C113.278 19.0428 117.456 24.4232 115.036 29.4244C110.128 39.5677 98.4547 45.9851 93 56z"/>
<path style="fill:#030303; stroke:none;" d="M250 21C245.459 25.7905 242.586 30.3332 242 37L243 37L250 21z"/>
<path style="fill:#f5bc0c; stroke:none;" d="M137 22L138 23L137 22z"/>
<path style="fill:#030303; stroke:none;" d="M233 22C231.661 29.106 231.175 33.12 224 36L224 37L233 35L233 22M254 32L252 39L253 39L254 32z"/>
<path style="fill:#f5bc0c; stroke:none;" d="M131 42L132 43L131 42M101 45L102 46L101 45M95 52L96 53L95 52M93 54L94 55L93 54M111 59L112 60L111 59M104 72L105 73L104 72M80 73L81 74L80 73M103 81L104 82L103 81M31 111C31.9879 123.414 48.5489 140.505 41.8673 152.981C36.8773 162.298 22.9777 156.654 15.0039 159.742C6.43101 163.063 6.00511 174.283 6 182L16 182L19 170C29.8852 175.899 34.9667 184.347 49 182.826C71.8016 180.356 82.6391 145.796 73.4313 127C65.4596 110.727 44.7467 126.161 42 111L31 111z"/>
<path style="fill:#c10101; stroke:none;" d="M31 115L32 116L31 115M75 133L76 134L75 133z"/>
<path style="fill:#2a9b95; stroke:none;" d="M306 213L315 213L315 195L316 195L316 213L325 213C325.225 202.486 332.027 201.444 337.487 193.981C343.106 186.301 343.071 171.267 338.427 163.093C323.411 136.663 272.941 144.418 272.137 177C271.705 194.464 290.983 185.288 299.981 190.858C307.632 195.594 306 205.3 306 213z"/>
<path style="fill:#4471c6; stroke:none;" d="M312 146L313 147L312 146M306 147L307 148L306 147M282 156L283 157L282 156z"/>
<path style="fill:#030303; stroke:none;" d="M310 156L312 164C304.714 165.353 298.88 165.213 294 159L293 159L299 165L299 168C292.976 169.93 289.186 170.944 283 169L283 170L288 172L285 183L286 183C287.376 172.711 299.578 167.033 309 167L308 176L302 175L302 176L310 178C306.936 160.713 325.695 164.161 327 179L319 178L319 180L326 181L316 195L317 195C320.971 189.387 323.852 187.332 330 191C325.611 180.688 330.599 177.993 333 168L332 168L327 174C325.902 168.551 320.424 164.823 325 160L325 159L320 164L310 156z"/>
<path style="fill:#c10101; stroke:none;" d="M25 159L26 160L25 159z"/>
<path style="fill:#4471c6; stroke:none;" d="M294 160L295 161L294 160M337 161L338 162L337 161M298 167L299 168L298 167M310 167L311 168L310 167M309 170L310 171L309 170M332 170L333 171L332 170z"/>
<path style="fill:#c10101; stroke:none;" d="M17 173L18 174L17 173z"/>
<path style="fill:#4471c6; stroke:none;" d="M288 175L289 176L288 175M286 178L287 179L286 178M326 178L327 179L326 178z"/>
<path style="fill:#030303; stroke:none;" d="M310 179L313 182L310 179z"/>
<path style="fill:#4471c6; stroke:none;" d="M284 182L285 183L284 182M316 192L317 193L316 192M76 233L76 254L75 254C74.4648 251.117 74.8265 245.919 72.9722 243.604C67.0346 236.193 53.9383 252.844 51.4753 257C43.9074 269.771 41.9524 290.698 49.5332 303.941C52.9269 309.87 59.2177 307.484 64 304.647C74.9108 298.175 73.9722 289.194 75.4637 278.17C75.8404 275.386 76.5283 270.186 80.0648 269.631C84.9075 268.872 85.534 277.953 85.8302 281C87.0083 293.117 89.257 303.704 103 307.358C111.936 309.734 113.985 298.484 115.079 292C117.228 279.274 115.059 264.763 107.557 254.001C104.858 250.128 94.3937 237.987 88.6034 242.777C86.1313 244.822 86.5544 251.014 86 254L85 254L85 233L76 233z"/>
<path style="fill:#f5bc0c; stroke:none;" d="M70.6667 241.333L71.3333 241.667L70.6667 241.333M90 241L91 242L90 241z"/>
<path style="fill:#2a9b95; stroke:none;" d="M60 246L61 247L60 246z"/>
<path style="fill:#f5bc0c; stroke:none;" d="M215 246L216 247L215 246z"/>
<path style="fill:#2a9b95; stroke:none;" d="M226 275C236.249 277.137 232 299.61 232 308L237 308C237 296.304 242.868 270.144 227 270C227.979 265.293 230.351 260.938 229.517 256C227.915 246.519 218.487 243.087 211.21 249.533C200.276 259.218 200.625 281.848 208.789 292.985C221.971 310.963 233.367 289.052 226 275M250 270C232.867 270.144 239 295.307 239 308L244 308C244 299.127 239.446 276.302 251 275L251 276C249.088 277.032 248.721 278.908 247.833 281.028C245.521 286.549 245.822 295.449 252.028 298.583C258.512 301.858 269.379 296.397 269 289L271 289C271.442 276.688 276.89 265.905 268.906 254.286C256.237 235.851 241.459 253.708 250 270M58 248L59 249L58 248z"/>
<path style="fill:#4471c6; stroke:none;" d="M212 248L213 249L212 248z"/>
<path style="fill:#f5bc0c; stroke:none;" d="M248 250L249 251L248 250z"/>
<path style="fill:#4471c6; stroke:none;" d="M265 250L266 251L265 250z"/>
<path style="fill:#2a9b95; stroke:none;" d="M55 251L56 252L55 251z"/>
<path style="fill:#4471c6; stroke:none;" d="M266 251L267 252L266 251M267 252L268 253L267 252z"/>
<path style="fill:#030303; stroke:none;" d="M64 254L67 264C61.7522 264.003 57.6613 263.851 54 268L63 265L54 286L60 276L62 276L63 282L64 282C63.405 275.176 60.3266 268.495 69 266L69 274L70 274C70.0512 256.155 90.9865 257.541 91 275L92 275L92 266C100.392 268.992 97.6092 275.014 97 282L98 282L99 276L101 276L107 286L98 265L107 268C103.339 263.851 99.2478 264.003 94 264L97 254L96 254C94.3098 263.299 83.5167 263.318 82 254L79 254C77.0935 265.713 67.9413 260.216 64 254z"/>
<path style="fill:#4471c6; stroke:none;" d="M269 255L270 256L269 255M246 256L247 257L246 256z"/>
<path style="fill:#2a9b95; stroke:none;" d="M95 257L96 258L95 257z"/>
<path style="fill:#4471c6; stroke:none;" d="M246 259L247 260L246 259z"/>
<path style="fill:#2a9b95; stroke:none;" d="M74 260L75 261L74 260M82 260L83 261L82 260M67 261L68 262L67 261M93 261L94 262L93 261M111 261L112 262L111 261M71 263L72 264L71 263M57 264L58 265L57 264M65 266L66 267L65 266z"/>
<path style="fill:#4471c6; stroke:none;" d="M227 266L228 267L227 266z"/>
<path style="fill:#2a9b95; stroke:none;" d="M96 267L97 268L96 267M105 267L106 268L105 267z"/>
<path style="fill:#4471c6; stroke:none;" d="M203 267L204 268L203 267z"/>
<path style="fill:#2a9b95; stroke:none;" d="M63 268L64 269L63 268z"/>
<path style="fill:#f5bc0c; stroke:none;" d="M79 268L80 269L79 268M81 268L82 269L81 268z"/>
<path style="fill:#2a9b95; stroke:none;" d="M99 269L100 270L99 269z"/>
<path style="fill:#4471c6; stroke:none;" d="M273 269L274 270L273 269z"/>
<path style="fill:#2a9b95; stroke:none;" d="M46 270L47 271L46 270z"/>
<path style="fill:#4471c6; stroke:none;" d="M242 270L243 271L242 270M273.333 272.667L273.667 273.333L273.333 272.667z"/>
<path style="fill:#2a9b95; stroke:none;" d="M68 273L69 274L68 273M62 274L63 275L62 274M69 274L70 275L69 274z"/>
<path style="fill:#4471c6; stroke:none;" d="M226 275L226 276L230 276L226 275M246 275L246 276L251 276L246 275z"/>
<path style="fill:#2a9b95; stroke:none;" d="M75 276L76 277L75 276z"/>
<path style="fill:#4471c6; stroke:none;" d="M273 276L274 277L273 276z"/>
<path style="fill:#2a9b95; stroke:none;" d="M63 277L64 278L63 277M97 277L98 278L97 277z"/>
<path style="fill:#4471c6; stroke:none;" d="M249 277L250 278L249 277M248 279L249 280L248 279M247 281L248 282L247 281M272.333 281.667L272.667 282.333L272.333 281.667z"/>
<path style="fill:#2a9b95; stroke:none;" d="M63 282L64 283L63 282M97 282L98 283L97 282M103 283L104 284L103 283z"/>
<path style="fill:#4471c6; stroke:none;" d="M229 285L230 286L229 285M271 285L272 286L271 285M270 287L271 288L270 287M246 288L247 289L246 288M229 289L230 290L229 289M269 289L270 290L269 289M208 292L209 293L208 292M228 292L229 293L228 292M247 292L248 293L247 292M248 294L249 295L248 294M266 294L267 295L266 294M265 295L266 296L265 295M214 298L215 299L214 298M261 298L262 299L261 298z"/>
<path style="fill:#2a9b95; stroke:none;" d="M48 301L49 302L48 301z"/>
</svg>
